<svg width="32" height="32" viewBox="0 0 32 32" fill="none" xmlns="http://www.w3.org/2000/svg">
<rect width="32" height="32" rx="4" fill="#2C5DE5"/>
<path fill-rule="evenodd" clip-rule="evenodd" d="M13.5813 15.5352L19.0873 10.0298C19.5913 9.52651 20.4687 9.52651 20.9727 10.0298L22.03 11.0872C22.282 11.3392 22.4207 11.6738 22.4207 12.0298C22.4207 12.3858 22.282 12.7205 22.03 12.9725L16.524 18.4778C16.4387 18.5632 16.3313 18.6238 16.214 18.6532L13.5473 19.3198C13.494 19.3332 13.44 19.3398 13.386 19.3398C13.2113 19.3398 13.0407 19.2712 12.9147 19.1445C12.7493 18.9785 12.682 18.7385 12.7393 18.5112L13.406 15.8445C13.4353 15.7278 13.496 15.6205 13.5813 15.5352ZM14.302 17.7572L15.7113 17.4052L19.0873 14.0298L18.03 12.9732L14.6547 16.3478L14.302 17.7572ZM20.03 13.0872L18.9727 12.0305L20.03 10.9732L21.0873 12.0305L20.03 13.0872ZM20.6667 22.0005H11.3333C10.598 22.0005 10 21.4025 10 20.6672V11.3338C10 10.5985 10.598 10.0005 11.3333 10.0005H17.2313L15.898 11.3338H11.3333V20.6672H13.3193C13.3301 20.6675 13.3407 20.669 13.3513 20.6705C13.3629 20.6722 13.3745 20.6738 13.386 20.6738C13.3947 20.6738 13.4035 20.6722 13.4123 20.6705C13.4212 20.6688 13.43 20.6672 13.4387 20.6672H20.6667V16.2218L22 14.8885V20.6672C22 21.4025 21.402 22.0005 20.6667 22.0005Z" fill="white"/>
</svg>
