<svg width="18" height="18" viewBox="0 0 18 18" fill="none" xmlns="http://www.w3.org/2000/svg">
<path fill-rule="evenodd" clip-rule="evenodd" d="M15 6.75C15.4148 6.75 15.75 6.414 15.75 6V3C15.75 2.586 15.4148 2.25 15 2.25H12C11.5852 2.25 11.25 2.586 11.25 3V3.75H6.75V3C6.75 2.586 6.41475 2.25 6 2.25H3C2.58525 2.25 2.25 2.586 2.25 3V6C2.25 6.414 2.58525 6.75 3 6.75H3.75V11.25H3C2.58525 11.25 2.25 11.5852 2.25 12V15C2.25 15.4148 2.58525 15.75 3 15.75H6C6.41475 15.75 6.75 15.4148 6.75 15V14.25H11.25V15C11.25 15.4148 11.5852 15.75 12 15.75H15C15.4148 15.75 15.75 15.4148 15.75 15V12C15.75 11.5852 15.4148 11.25 15 11.25H14.25V6.75H15ZM12.75 3.75H14.25V5.25H12.75V3.75ZM3.75 3.75H5.25V5.25H3.75V3.75ZM5.25 14.25H3.75V12.75H5.25V14.25ZM14.25 14.25H12.75V12.75H14.25V14.25ZM12.75 11.25H12C11.5852 11.25 11.25 11.5852 11.25 12V12.75H6.75V12C6.75 11.5852 6.41475 11.25 6 11.25H5.25V6.75H6C6.41475 6.75 6.75 6.414 6.75 6V5.25H11.25V6C11.25 6.414 11.5852 6.75 12 6.75H12.75V11.25Z" fill="#B2C1CF"/>
</svg>
