<svg width="18" height="18" viewBox="0 0 18 18" fill="none" xmlns="http://www.w3.org/2000/svg">
<path fill-rule="evenodd" clip-rule="evenodd" d="M15 11.1285V9C15 5.5665 13.1558 3.03225 10.377 2.4045C10.1475 1.87125 9.61954 1.5 9.00004 1.5C8.38054 1.5 7.85254 1.87125 7.62304 2.4045C4.84429 3.03225 3.00004 5.5665 3.00004 9V11.1285L2.28904 13.263C2.21179 13.4917 2.25079 13.7438 2.39179 13.9388C2.53279 14.1345 2.75929 14.25 3.00004 14.25H6.75004C6.75004 15.498 7.75204 16.5 9.00004 16.5C10.248 16.5 11.25 15.498 11.25 14.25H15C15.006 14.25 15.012 14.25 15.015 14.25C15.4298 14.25 15.765 13.9148 15.765 13.5C15.765 13.365 15.7298 13.2382 15.6668 13.1287L15 11.1285ZM4.04104 12.75L4.46179 11.487C4.48654 11.4105 4.50004 11.3302 4.50004 11.25V9C4.50004 5.811 6.26629 3.75 9.00004 3.75C11.7338 3.75 13.5 5.811 13.5 9V11.25C13.5 11.3302 13.5135 11.4105 13.539 11.487L13.959 12.75H4.04104Z" fill="#B2C1CF"/>
</svg>
