<svg width="18" height="18" viewBox="0 0 18 18" fill="none" xmlns="http://www.w3.org/2000/svg">
<path fill-rule="evenodd" clip-rule="evenodd" d="M8.25003 15.0003V14.0935C7.75503 14.194 7.25253 14.2465 6.75003 14.2458C4.82928 14.2458 2.90928 13.5145 1.44678 12.0528L2.50728 10.9923C4.84653 13.3323 8.65353 13.3308 10.9928 10.9923C13.332 8.65304 13.332 4.84679 10.9928 2.50679L12.0533 1.44629C14.9768 4.37129 14.9768 9.13004 12.0533 12.0535C11.3708 12.736 10.5855 13.2528 9.75003 13.6165V15.0003H11.25V16.5003H9.75003H8.25003H6.75003V15.0003H8.25003ZM2.25003 6.75029C2.25003 9.23204 4.26828 11.2503 6.75003 11.2503C9.23178 11.2503 11.25 9.23204 11.25 6.75029C11.25 4.26854 9.23178 2.25029 6.75003 2.25029C4.26828 2.25029 2.25003 4.26854 2.25003 6.75029ZM9.75003 6.75029C9.75003 8.40479 8.40453 9.75029 6.75003 9.75029C5.09553 9.75029 3.75003 8.40479 3.75003 6.75029C3.75003 5.09579 5.09553 3.75029 6.75003 3.75029C8.40453 3.75029 9.75003 5.09579 9.75003 6.75029Z" fill="#B2C1CF"/>
</svg>
