<svg width="18" height="18" viewBox="0 0 18 18" fill="none" xmlns="http://www.w3.org/2000/svg">
<path fill-rule="evenodd" clip-rule="evenodd" d="M6 16.5C5.90325 16.5 5.80575 16.482 5.71275 16.443C5.43225 16.3275 5.25 16.053 5.25 15.75V12.75H3C2.17275 12.75 1.5 12.0773 1.5 11.25V4.5C1.5 3.67275 2.17275 3 3 3H15C15.8273 3 16.5 3.67275 16.5 4.5V11.25C16.5 12.0773 15.8273 12.75 15 12.75H10.0605L6.53025 16.2803C6.387 16.4235 6.195 16.5 6 16.5ZM3 4.5V11.25H6C6.41475 11.25 6.75 11.5853 6.75 12V13.9395L9.21975 11.4698C9.36 11.3288 9.5505 11.25 9.75 11.25H15V4.5H3Z" fill="#B2C1CF"/>
</svg>
