<svg width="18" height="18" viewBox="0 0 18 18" fill="none" xmlns="http://www.w3.org/2000/svg">
<path fill-rule="evenodd" clip-rule="evenodd" d="M3 14.25H4.5C4.5 15.0773 5.17275 15.75 6 15.75H12C12.8273 15.75 13.5 15.0773 13.5 14.25H15C15.8273 14.25 16.5 13.5773 16.5 12.75V5.25C16.5 4.42275 15.8273 3.75 15 3.75H13.5C13.5 2.92275 12.8273 2.25 12 2.25H6C5.17275 2.25 4.5 2.92275 4.5 3.75H3C2.17275 3.75 1.5 4.42275 1.5 5.25V12.75C1.5 13.5773 2.17275 14.25 3 14.25ZM15 5.25V12.75H13.5V5.25H15ZM6 3.75H12L12.0008 14.25H6V12.75V3.75ZM3 5.25H4.5V12.75H3V5.25Z" fill="#B2C1CF"/>
</svg>
