<svg width="18" height="18" viewBox="0 0 18 18" fill="none" xmlns="http://www.w3.org/2000/svg">
<path fill-rule="evenodd" clip-rule="evenodd" d="M14.25 2.25H3.75C2.92275 2.25 2.25 2.92275 2.25 3.75V14.25C2.25 15.0773 2.92275 15.75 3.75 15.75H14.25C15.0773 15.75 15.75 15.0773 15.75 14.25V3.75C15.75 2.92275 15.0773 2.25 14.25 2.25ZM3.75 14.25V3.75H14.25L14.2515 14.25H3.75ZM12.75 5.25H5.25V6.75H12.75V5.25ZM8.25 11.25H5.25V12.75H8.25V11.25ZM9.75 11.25H12.75V12.75H9.75V11.25ZM8.25 8.25H5.25V9.75H8.25V8.25ZM9.75 8.25H12.75V9.75H9.75V8.25Z" fill="#B2C1CF"/>
</svg>
