<svg width="18" height="18" viewBox="0 0 18 18" fill="none" xmlns="http://www.w3.org/2000/svg">
<path fill-rule="evenodd" clip-rule="evenodd" d="M2.2499 9.75019H2.9999V11.2502V15.0002C2.9999 15.8274 3.67265 16.5002 4.4999 16.5002H6.7499H11.2499H13.4999C14.3271 16.5002 14.9999 15.8274 14.9999 15.0002V11.2502V9.75019H15.7499C16.0529 9.75019 16.3274 9.56719 16.4429 9.28744C16.5591 9.00694 16.4946 8.68444 16.2801 8.46994L9.53015 1.71994C9.2369 1.42669 8.7629 1.42669 8.46965 1.71994L1.71965 8.46994C1.50515 8.68444 1.44065 9.00694 1.5569 9.28744C1.6724 9.56719 1.9469 9.75019 2.2499 9.75019ZM7.4999 15.0002V11.2502H10.4999V15.0002H7.4999ZM8.9999 3.31069L13.4999 7.81069V11.2502V11.2502L13.5006 15.0002H11.9999V11.2502C11.9999 10.4229 11.3271 9.75019 10.4999 9.75019H7.4999C6.67265 9.75019 5.9999 10.4229 5.9999 11.2502V15.0002H4.4999V11.2502V9.00019V7.81069L8.9999 3.31069Z" fill="#B2C1CF"/>
</svg>
