<svg width="16" height="16" viewBox="0 0 16 16" fill="none" xmlns="http://www.w3.org/2000/svg">
<path fill-rule="evenodd" clip-rule="evenodd" d="M13.8358 7.53125C13.6933 7.3535 13.478 7.25 13.25 7.25H8.75V5.75H11.75C12.5773 5.75 13.25 5.07725 13.25 4.25V2C13.25 1.17275 12.5773 0.5 11.75 0.5H2.75C2.522 0.5 2.30675 0.6035 2.16425 0.78125L0.66425 2.65625C0.44525 2.93 0.44525 3.32 0.66425 3.59375L2.16425 5.46875C2.30675 5.6465 2.522 5.75 2.75 5.75H7.25V7.25H4.25C3.42275 7.25 2.75 7.92275 2.75 8.75V11C2.75 11.8273 3.42275 12.5 4.25 12.5H7.25V15.5H8.75V12.5H13.25C13.478 12.5 13.6933 12.3965 13.8358 12.2188L15.3358 10.3438C15.5548 10.07 15.5548 9.68 15.3358 9.40625L13.8358 7.53125ZM2.21075 3.125L3.11 2H11.75L11.7515 4.25H3.11L2.21075 3.125ZM12.89 11H4.25V8.75H12.89L13.79 9.875L12.89 11Z" fill="#B2C1CF"/>
</svg>
