<svg width="18" height="18" viewBox="0 0 18 18" fill="none" xmlns="http://www.w3.org/2000/svg">
<path fill-rule="evenodd" clip-rule="evenodd" d="M14.361 2.22825C14.0918 1.779 13.599 1.5 13.0755 1.5H4.9245C4.401 1.5 3.90825 1.779 3.639 2.22825L1.60725 5.61375C1.53675 5.73075 1.5 5.8635 1.5 6C1.5 6.7545 1.7895 7.4355 2.25 7.9635V14.25C2.25 15.0773 2.92275 15.75 3.75 15.75H6.75H11.25H14.25C15.0773 15.75 15.75 15.0773 15.75 14.25V7.9635C16.2105 7.4355 16.5 6.7545 16.5 6C16.5 5.8635 16.4633 5.73075 16.3927 5.61375L14.361 2.22825ZM14.988 6.18825C14.895 6.92625 14.2635 7.5 13.5 7.5C12.6727 7.5 12 6.82725 12 6C12 5.949 11.9812 5.904 11.9707 5.856L11.9858 5.853L11.415 3H13.0755L14.988 6.18825ZM8.11425 3H9.885L10.4947 6.04875C10.4685 6.85275 9.81 7.5 9 7.5C8.19 7.5 7.5315 6.85275 7.50525 6.04875L8.11425 3ZM4.9245 3H6.585L6.015 5.853L6.03 5.856C6.01875 5.904 6 5.949 6 6C6 6.82725 5.32725 7.5 4.5 7.5C3.7365 7.5 3.105 6.92625 3.012 6.18825L4.9245 3ZM7.5 14.25V12H10.5V14.25H7.5ZM12 14.25V12C12 11.1727 11.3273 10.5 10.5 10.5H7.5C6.67275 10.5 6 11.1727 6 12V14.25H3.75V8.8935C3.99075 8.95575 4.239 9 4.5 9C5.39475 9 6.20025 8.60625 6.75 7.98225C7.29975 8.60625 8.10525 9 9 9C9.89475 9 10.7002 8.60625 11.25 7.98225C11.7998 8.60625 12.6053 9 13.5 9C13.761 9 14.0092 8.95575 14.25 8.8935V14.25H12Z" fill="#B2C1CF"/>
</svg>
