<svg width="18" height="18" viewBox="0 0 18 18" fill="none" xmlns="http://www.w3.org/2000/svg">
<path fill-rule="evenodd" clip-rule="evenodd" d="M12.75 16.5C13.5773 16.5 14.25 15.8273 14.25 15V3C14.25 2.17275 13.5773 1.5 12.75 1.5H5.25C4.42275 1.5 3.75 2.17275 3.75 3V15C3.75 15.8273 4.42275 16.5 5.25 16.5H12.75ZM8.25 14.25C8.25 13.8353 8.58525 13.5 9 13.5C9.41475 13.5 9.75 13.8353 9.75 14.25C9.75 14.6647 9.41475 15 9 15C8.58525 15 8.25 14.6647 8.25 14.25ZM12.75 3L12.7515 12.7492H5.25V3H12.75Z" fill="#B2C1CF"/>
</svg>
