<svg width="16" height="16" viewBox="0 0 16 16" fill="none" xmlns="http://www.w3.org/2000/svg">
<path fill-rule="evenodd" clip-rule="evenodd" d="M2 13.25H3.5C3.5 14.0773 4.17275 14.75 5 14.75H11C11.8273 14.75 12.5 14.0773 12.5 13.25H14C14.8273 13.25 15.5 12.5773 15.5 11.75V4.25C15.5 3.42275 14.8273 2.75 14 2.75H12.5C12.5 1.92275 11.8273 1.25 11 1.25H5C4.17275 1.25 3.5 1.92275 3.5 2.75H2C1.17275 2.75 0.5 3.42275 0.5 4.25V11.75C0.5 12.5773 1.17275 13.25 2 13.25ZM14 4.25V11.75H12.5V4.25H14ZM5 2.75H11L11.0008 13.25H5V11.75V2.75ZM2 4.25H3.5V11.75H2V4.25Z" fill="#B2C1CF"/>
<path d="M3.5 13.25H4V12.75H3.5V13.25ZM12.5 13.25V12.75H12V13.25H12.5ZM12.5 2.75H12V3.25H12.5V2.75ZM3.5 2.75V3.25H4V2.75H3.5ZM14 4.25H14.5V3.75H14V4.25ZM14 11.75V12.25H14.5V11.75H14ZM12.5 11.75H12V12.25H12.5V11.75ZM12.5 4.25V3.75H12V4.25H12.5ZM5 2.75V2.25H4.5V2.75H5ZM11 2.75L11.5 2.74996L11.5 2.25H11V2.75ZM11.0008 13.25V13.75H11.5008L11.5008 13.25L11.0008 13.25ZM5 13.25H4.5V13.75H5V13.25ZM2 4.25V3.75H1.5V4.25H2ZM3.5 4.25H4V3.75H3.5V4.25ZM3.5 11.75V12.25H4V11.75H3.5ZM2 11.75H1.5V12.25H2V11.75ZM2 13.75H3.5V12.75H2V13.75ZM3 13.25C3 14.3534 3.89661 15.25 5 15.25V14.25C4.44889 14.25 4 13.8011 4 13.25H3ZM5 15.25H11V14.25H5V15.25ZM11 15.25C12.1034 15.25 13 14.3534 13 13.25H12C12 13.8011 11.5511 14.25 11 14.25V15.25ZM12.5 13.75H14V12.75H12.5V13.75ZM14 13.75C15.1034 13.75 16 12.8534 16 11.75H15C15 12.3011 14.5511 12.75 14 12.75V13.75ZM16 11.75V4.25H15V11.75H16ZM16 4.25C16 3.14661 15.1034 2.25 14 2.25V3.25C14.5511 3.25 15 3.69889 15 4.25H16ZM14 2.25H12.5V3.25H14V2.25ZM13 2.75C13 1.64661 12.1034 0.75 11 0.75V1.75C11.5511 1.75 12 2.19889 12 2.75H13ZM11 0.75H5V1.75H11V0.75ZM5 0.75C3.89661 0.75 3 1.64661 3 2.75H4C4 2.19889 4.44889 1.75 5 1.75V0.75ZM3.5 2.25H2V3.25H3.5V2.25ZM2 2.25C0.896608 2.25 0 3.14661 0 4.25H1C1 3.69889 1.44889 3.25 2 3.25V2.25ZM0 4.25V11.75H1V4.25H0ZM0 11.75C0 12.8534 0.896608 13.75 2 13.75V12.75C1.44889 12.75 1 12.3011 1 11.75H0ZM13.5 4.25V11.75H14.5V4.25H13.5ZM14 11.25H12.5V12.25H14V11.25ZM13 11.75V4.25H12V11.75H13ZM12.5 4.75H14V3.75H12.5V4.75ZM5 3.25H11V2.25H5V3.25ZM10.5 2.75004L10.5008 13.25L11.5008 13.25L11.5 2.74996L10.5 2.75004ZM11.0008 12.75H5V13.75H11.0008V12.75ZM5.5 13.25V11.75H4.5V13.25H5.5ZM5.5 11.75V2.75H4.5V11.75H5.5ZM2 4.75H3.5V3.75H2V4.75ZM3 4.25V11.75H4V4.25H3ZM3.5 11.25H2V12.25H3.5V11.25ZM2.5 11.75V4.25H1.5V11.75H2.5Z" fill="black"/>
<path d="M3.5 13.25H4V12.75H3.5V13.25ZM12.5 13.25V12.75H12V13.25H12.5ZM12.5 2.75H12V3.25H12.5V2.75ZM3.5 2.75V3.25H4V2.75H3.5ZM14 4.25H14.5V3.75H14V4.25ZM14 11.75V12.25H14.5V11.75H14ZM12.5 11.75H12V12.25H12.5V11.75ZM12.5 4.25V3.75H12V4.25H12.5ZM5 2.75V2.25H4.5V2.75H5ZM11 2.75L11.5 2.74996L11.5 2.25H11V2.75ZM11.0008 13.25V13.75H11.5008L11.5008 13.25L11.0008 13.25ZM5 13.25H4.5V13.75H5V13.25ZM2 4.25V3.75H1.5V4.25H2ZM3.5 4.25H4V3.75H3.5V4.25ZM3.5 11.75V12.25H4V11.75H3.5ZM2 11.75H1.5V12.25H2V11.75ZM2 13.75H3.5V12.75H2V13.75ZM3 13.25C3 14.3534 3.89661 15.25 5 15.25V14.25C4.44889 14.25 4 13.8011 4 13.25H3ZM5 15.25H11V14.25H5V15.25ZM11 15.25C12.1034 15.25 13 14.3534 13 13.25H12C12 13.8011 11.5511 14.25 11 14.25V15.25ZM12.5 13.75H14V12.75H12.5V13.75ZM14 13.75C15.1034 13.75 16 12.8534 16 11.75H15C15 12.3011 14.5511 12.75 14 12.75V13.75ZM16 11.75V4.25H15V11.75H16ZM16 4.25C16 3.14661 15.1034 2.25 14 2.25V3.25C14.5511 3.25 15 3.69889 15 4.25H16ZM14 2.25H12.5V3.25H14V2.25ZM13 2.75C13 1.64661 12.1034 0.75 11 0.75V1.75C11.5511 1.75 12 2.19889 12 2.75H13ZM11 0.75H5V1.75H11V0.75ZM5 0.75C3.89661 0.75 3 1.64661 3 2.75H4C4 2.19889 4.44889 1.75 5 1.75V0.75ZM3.5 2.25H2V3.25H3.5V2.25ZM2 2.25C0.896608 2.25 0 3.14661 0 4.25H1C1 3.69889 1.44889 3.25 2 3.25V2.25ZM0 4.25V11.75H1V4.25H0ZM0 11.75C0 12.8534 0.896608 13.75 2 13.75V12.75C1.44889 12.75 1 12.3011 1 11.75H0ZM13.5 4.25V11.75H14.5V4.25H13.5ZM14 11.25H12.5V12.25H14V11.25ZM13 11.75V4.25H12V11.75H13ZM12.5 4.75H14V3.75H12.5V4.75ZM5 3.25H11V2.25H5V3.25ZM10.5 2.75004L10.5008 13.25L11.5008 13.25L11.5 2.74996L10.5 2.75004ZM11.0008 12.75H5V13.75H11.0008V12.75ZM5.5 13.25V11.75H4.5V13.25H5.5ZM5.5 11.75V2.75H4.5V11.75H5.5ZM2 4.75H3.5V3.75H2V4.75ZM3 4.25V11.75H4V4.25H3ZM3.5 11.25H2V12.25H3.5V11.25ZM2.5 11.75V4.25H1.5V11.75H2.5Z" fill="url(#paint0_linear)"/>
<defs>
<linearGradient id="paint0_linear" x1="8" y1="1.25" x2="8" y2="14.75" gradientUnits="userSpaceOnUse">
<stop stop-color="white"/>
<stop offset="1" stop-color="white" stop-opacity="0"/>
</linearGradient>
</defs>
</svg>
