<svg width="14" height="12" viewBox="0 0 14 12" fill="none" xmlns="http://www.w3.org/2000/svg">
<path fill-rule="evenodd" clip-rule="evenodd" d="M12.3327 0.666668H1.66601C0.930672 0.666668 0.332672 1.26467 0.332672 2V10C0.332672 10.7353 0.930672 11.3333 1.66601 11.3333H12.3327C13.068 11.3333 13.666 10.7353 13.666 10V2C13.666 1.26467 13.068 0.666668 12.3327 0.666668ZM1.66601 10V2H12.3327L12.334 10H1.66601ZM3.99934 5.33333C4.55162 5.33333 4.99934 4.88562 4.99934 4.33333C4.99934 3.78105 4.55162 3.33333 3.99934 3.33333C3.44705 3.33333 2.99934 3.78105 2.99934 4.33333C2.99934 4.88562 3.44705 5.33333 3.99934 5.33333ZM5.99934 7.33333L4.99934 6L2.99934 8.66667H4.99934H6.99934H10.9993L7.99934 4.66667L5.99934 7.33333Z" fill="#B2C1CF"/>
</svg>
