<svg width="10" height="14" viewBox="0 0 10 14" fill="none" xmlns="http://www.w3.org/2000/svg">
<path fill-rule="evenodd" clip-rule="evenodd" d="M2.66667 12H6.66667V13.3333H2.66667V12ZM7.93733 7.808C8.624 7.004 9.33333 6.17267 9.33333 4.66667C9.33333 2.094 7.23933 0 4.66667 0C2.094 0 0 2.094 0 4.66667C0 6.19 0.711333 7.01867 1.40067 7.82C1.63933 8.09867 1.88667 8.38733 2.12333 8.71933C2.21933 8.85667 2.37667 9.38333 2.51733 10H2V11.3333H2.77467H6.558H7.33333V10H6.81733C6.95933 9.382 7.11733 8.854 7.21267 8.71667C7.44733 8.38133 7.69667 8.09 7.93733 7.808ZM6.12133 7.95C5.832 8.36133 5.59067 9.33333 5.45067 10H3.88333C3.744 9.332 3.502 8.358 3.20933 7.94667C2.938 7.56533 2.65867 7.23933 2.412 6.952C1.76267 6.196 1.33333 5.696 1.33333 4.66667C1.33333 2.82867 2.82867 1.33333 4.66667 1.33333C6.50467 1.33333 8 2.82867 8 4.66667C8 5.68067 7.57133 6.18267 6.92333 6.942C6.67467 7.234 6.39267 7.564 6.12133 7.95Z" fill="#B2C1CF"/>
</svg>
