<svg width="14" height="14" viewBox="0 0 14 14" fill="none" xmlns="http://www.w3.org/2000/svg">
<path fill-rule="evenodd" clip-rule="evenodd" d="M4.33334 0.333332H12.3333C13.0687 0.333332 13.6667 0.931332 13.6667 1.66667V9.66667H12.3333V1.66667H4.33334V0.333332ZM9.66667 13.6667H1.66667C0.931336 13.6667 0.333336 13.0687 0.333336 12.3333V4.33333C0.333336 3.598 0.931336 3 1.66667 3H9.66667C10.402 3 11 3.598 11 4.33333V12.3333C11 13.0687 10.402 13.6667 9.66667 13.6667ZM9.66667 4.33333H1.66667V12.3333H9.668L9.66667 4.33333ZM6.33334 5.66667H5V7.66667H3V9H5V11H6.33334V9H8.33334V7.66667H6.33334V5.66667Z" fill="#B2C1CF"/>
</svg>
