<svg width="14" height="14" viewBox="0 0 14 14" fill="none" xmlns="http://www.w3.org/2000/svg">
  <path fill-rule="evenodd" clip-rule="evenodd" d="M7.00016 0.333008C3.32416 0.333008 0.333496 3.32367 0.333496 6.99967C0.333496 10.6757 3.32416 13.6663 7.00016 13.6663C10.6762 13.6663 13.6668 10.6757 13.6668 6.99967C13.6668 3.32367 10.6762 0.333008 7.00016 0.333008ZM7.00016 12.333C4.0595 12.333 1.66683 9.94034 1.66683 6.99967C1.66683 4.05901 4.0595 1.66634 7.00016 1.66634C9.94083 1.66634 12.3335 4.05901 12.3335 6.99967C12.3335 9.94034 9.94083 12.333 7.00016 12.333ZM10.3335 6.33301H3.66683V7.66634H10.3335V6.33301Z" fill="#D42D11"/>
</svg>
