<svg width="20" height="19" viewBox="0 0 20 19" fill="none" xmlns="http://www.w3.org/2000/svg">
<path fill-rule="evenodd" clip-rule="evenodd" d="M6 18.3519C5.871 18.3519 5.741 18.3279 5.617 18.2759C5.243 18.1219 5 17.7559 5 17.3519V13.3519H2C0.897 13.3519 0 12.4549 0 11.3519V2.35193C0 1.24893 0.897 0.351929 2 0.351929H18C19.103 0.351929 20 1.24893 20 2.35193V11.3519C20 12.4549 19.103 13.3519 18 13.3519H11.414L6.707 18.0589C6.516 18.2499 6.26 18.3519 6 18.3519ZM2 2.35193V11.3519H6C6.553 11.3519 7 11.7989 7 12.3519V14.9379L10.293 11.6449C10.48 11.4569 10.734 11.3519 11 11.3519H18V2.35193H2Z" fill="#D42D11"/>
</svg>
