<svg width="33" height="32" viewBox="0 0 33 32" fill="none" xmlns="http://www.w3.org/2000/svg">
<rect width="32.5792" height="32" rx="4" fill="#D42D11"/>
<path fill-rule="evenodd" clip-rule="evenodd" d="M12.2976 19.9997H21.6229C21.9916 19.9997 22.2896 19.701 22.2896 19.333V10.6663C22.2896 9.93101 21.6916 9.33301 20.9562 9.33301H12.2896C11.4856 9.33301 10.2896 9.86567 10.2896 11.333V13.333V17.333V19.333V20.6663C10.2896 22.1337 11.4856 22.6663 12.2896 22.6663H22.2896V21.333H12.2976C11.9896 21.325 11.6229 21.203 11.6229 20.6663C11.6229 20.1297 11.9896 20.0077 12.2976 19.9997ZM11.6229 13.333V11.333C11.6229 10.7963 11.9896 10.6743 12.2896 10.6663H20.9562V18.6663H11.6229V17.333V13.333ZM19.6229 11.9997H13.6229V13.333H19.6229V11.9997Z" fill="white"/>
</svg>
