<svg width="20" height="20" viewBox="0 0 20 20" fill="none" xmlns="http://www.w3.org/2000/svg">
  <path fill-rule="evenodd" clip-rule="evenodd" d="M17.778 9.29252C19.726 7.34352 19.726 4.17052 17.778 2.22152C15.828 0.271516 12.655 0.273516 10.707 2.22152L7.879 5.05052L9.293 6.46452L12.121 3.63552C13.291 2.46852 15.194 2.46652 16.364 3.63552C17.533 4.80552 17.533 6.70852 16.364 7.87852L13.535 10.7065L14.949 12.1205L17.778 9.29252ZM2.222 17.7775C3.197 18.7525 4.477 19.2395 5.757 19.2395C7.038 19.2385 8.319 18.7525 9.293 17.7775L12.121 14.9485L10.707 13.5345L7.879 16.3635C6.71 17.5305 4.807 17.5325 3.636 16.3635C2.467 15.1935 2.467 13.2905 3.636 12.1205L6.465 9.29252L5.051 7.87852L2.222 10.7065C0.273004 12.6555 0.273004 15.8285 2.222 17.7775ZM5.04949 13.5357L6.46368 14.9499L14.9498 6.46407L13.5356 5.04983L5.04949 13.5357Z" fill="#D42D11"/>
</svg>
