<svg width="16" height="20" viewBox="0 0 16 20" fill="none" xmlns="http://www.w3.org/2000/svg">
<path fill-rule="evenodd" clip-rule="evenodd" d="M15.707 6.293C15.793 6.379 15.854 6.48 15.903 6.586C15.9154 6.61254 15.9239 6.63986 15.9326 6.66797L15.9326 6.668L15.936 6.679C15.965 6.763 15.982 6.849 15.987 6.938C15.9879 6.94813 15.9907 6.95762 15.9935 6.96697C15.9968 6.97792 16 6.98867 16 7V18C16 19.103 15.103 20 14 20H2C0.897 20 0 19.103 0 18V2C0 0.897 0.897 0 2 0H9C9.01149 0 9.02238 0.00329309 9.03333 0.00660326C9.04239 0.00934293 9.05149 0.0120943 9.061 0.013C9.15 0.018 9.236 0.036 9.32 0.064C9.32997 0.0674274 9.33994 0.0705635 9.34985 0.0736807C9.37175 0.0805678 9.39335 0.0873621 9.414 0.097C9.52 0.146 9.621 0.207 9.707 0.293L15.707 6.293ZM10 6H12.586L10 3.414V6ZM2 18V2H8V7C8 7.553 8.447 8 9 8H14L14.002 18H2ZM4 6H6V8H4V6ZM12 12V10H4V12H12ZM12 16V14H4V16H12Z" fill="#D42D11"/>
</svg>
