<svg width="20" height="16" viewBox="0 0 20 16" fill="none" xmlns="http://www.w3.org/2000/svg">
<path fill-rule="evenodd" clip-rule="evenodd" d="M2 0H18C19.103 0 20 0.897 20 2V14C20 15.103 19.103 16 18 16H2C0.897 16 0 15.103 0 14V2C0 0.897 0.897 0 2 0ZM2 2V14H18.001L18 2H2ZM7.715 8C8.866 8 9.715 7.151 9.715 6C9.715 4.849 8.866 4 7.715 4C6.564 4 5.715 4.849 5.715 6C5.715 7.151 6.563 8 7.715 8ZM16 5H12V7H16V5ZM16 9H13V11H16V9ZM7.715 8.75C5.676 8.75 4 10.162 4 11.536V12H11.43V11.536C11.43 10.162 9.754 8.75 7.715 8.75Z" fill="#D42D11"/>
</svg>
