<svg width="21" height="19" viewBox="0 0 21 19" fill="none" xmlns="http://www.w3.org/2000/svg">
<path fill-rule="evenodd" clip-rule="evenodd" d="M17.6042 0.813L20.2942 4.412L20.2812 4.422C20.4052 4.589 20.4932 4.785 20.4932 5.01V16.01C20.4932 17.113 19.5962 18.01 18.4932 18.01H2.49316C1.39016 18.01 0.493164 17.113 0.493164 16.01V5.01C0.493164 4.784 0.582164 4.586 0.708164 4.418L0.694164 4.408L3.40316 0.806C3.77716 0.307 4.37516 0.00899982 5.00116 0.00899982H16.0012C16.6302 0.00899982 17.2292 0.31 17.6042 0.813ZM16.0012 2.01H5.00116L3.49716 4.01H17.4962L16.0012 2.01ZM2.49316 16.01V6.01H18.4932L18.4952 16.01H2.49316ZM7.49316 10.01H13.4932V8.01H15.4932V11.01C15.4932 11.563 15.0462 12.01 14.4932 12.01H6.49316C5.94016 12.01 5.49316 11.563 5.49316 11.01V8.01H7.49316V10.01Z" fill="#003360"/>
</svg>
