<svg width="21" height="20" viewBox="0 0 21 20" fill="none" xmlns="http://www.w3.org/2000/svg">
<path fill-rule="evenodd" clip-rule="evenodd" d="M1.4932 16.878L3.6152 19C3.9932 19.378 4.4952 19.586 5.0292 19.586C5.5632 19.586 6.0652 19.378 6.4432 19L10.7792 14.664C11.4952 14.885 12.2382 14.997 12.9962 14.997C14.9992 14.997 16.8832 14.218 18.2982 12.802C20.4442 10.655 21.0852 7.453 19.9302 4.644C19.8032 4.335 19.5302 4.109 19.2012 4.044C18.8722 3.978 18.5342 4.081 18.2982 4.317L15.1152 7.499L12.9942 5.377L16.1762 2.195C16.4122 1.959 16.5152 1.619 16.4492 1.292C16.3842 0.964 16.1582 0.69 15.8482 0.563C14.9392 0.189 13.9782 0 12.9922 0C10.9892 0 9.1062 0.78 7.6912 2.196C5.7062 4.18 5.0092 7.068 5.8292 9.714L1.4932 14.05C0.713203 14.829 0.713203 16.099 1.4932 16.878ZM7.6912 10.681C7.9762 10.396 8.0622 9.967 7.9092 9.594C7.0612 7.533 7.5312 5.184 9.1052 3.611C10.1432 2.572 11.5232 2 12.9922 2C13.1692 2 13.3442 2.008 13.5182 2.025L10.8732 4.67C10.4822 5.061 10.4822 5.693 10.8732 6.084L14.4082 9.62C14.5962 9.808 14.8492 9.913 15.1152 9.913C15.3812 9.913 15.6352 9.808 15.8222 9.62L18.4702 6.972C18.6262 8.58 18.0672 10.203 16.8832 11.388C15.3332 12.938 12.9192 13.415 10.8992 12.584C10.5272 12.431 10.0982 12.517 9.8122 12.802L5.0292 17.586H5.0302L5.0292 18.586V17.586L2.9072 15.464L7.6912 10.681Z" fill="#003360"/>
</svg>
