<svg width="19" height="18" viewBox="0 0 19 18" fill="none" xmlns="http://www.w3.org/2000/svg">
<path fill-rule="evenodd" clip-rule="evenodd" d="M16.4932 0H2.49316C1.39016 0 0.493164 0.897 0.493164 2V16C0.493164 17.103 1.39016 18 2.49316 18H16.4932C17.5962 18 18.4932 17.103 18.4932 16V2C18.4932 0.897 17.5962 0 16.4932 0ZM2.49316 16V2H16.4932L16.4952 16H2.49316ZM14.4932 4H4.49316V6H14.4932V4ZM8.49316 12H4.49316V14H8.49316V12ZM10.4932 12H14.4932V14H10.4932V12ZM8.49316 8H4.49316V10H8.49316V8ZM10.4932 8H14.4932V10H10.4932V8Z" fill="#003360"/>
</svg>
