<svg width="18" height="18" viewBox="0 0 18 18" fill="none" xmlns="http://www.w3.org/2000/svg">
<path fill-rule="evenodd" clip-rule="evenodd" d="M12.504 2.18548L6.21975 8.46973C5.9265 8.76298 5.9265 9.23698 6.21975 9.53023L8.46975 11.7802C8.616 11.9265 8.808 12 9 12C9.192 12 9.384 11.9265 9.53025 11.7802L15.8145 5.49598C16.7273 4.58323 16.7273 3.09973 15.813 2.18548C14.9295 1.30048 13.3875 1.30048 12.504 2.18548ZM14.754 4.43547L9 10.1895L7.8105 8.99997L13.5645 3.24597C13.8825 2.92797 14.433 2.92647 14.754 3.24747C15.081 3.57522 15.081 4.10847 14.754 4.43547ZM6 11.25C5.05125 10.7745 3.375 11.25 3.375 12.75C3.375 13.6477 3.75 14.25 2.25 15C2.25 15 4.6875 16.6875 6.375 15C7.3305 14.0445 7.4955 12 6 11.25Z" fill="#B2C1CF"/>
</svg>
