<svg width="18" height="18" viewBox="0 0 18 18" fill="none" xmlns="http://www.w3.org/2000/svg">
<path fill-rule="evenodd" clip-rule="evenodd" d="M6 9C4.29 9 3 7.71 3 6C3 4.29 4.29 3 6 3C7.71 3 9 4.29 9 6C9 7.71 7.71 9 6 9ZM11.9955 9.438L15.2205 6.219L16.2795 7.281L11.9955 11.5575L9.966 9.5295L11.0265 8.469L11.9955 9.438ZM7.5 6C7.5 6.8835 6.8835 7.5 6 7.5C5.1165 7.5 4.5 6.8835 4.5 6C4.5 5.1165 5.1165 4.5 6 4.5C6.8835 4.5 7.5 5.1165 7.5 6ZM5.25 11.25C4.0095 11.25 3 12.2595 3 13.5V14.25H1.5V13.5C1.5 11.4323 3.18225 9.75 5.25 9.75H6.75C8.81775 9.75 10.5 11.4323 10.5 13.5V14.25H9V13.5C9 12.2595 7.9905 11.25 6.75 11.25H5.25Z" fill="#212121"/>
</svg>
