<svg width="18" height="18" viewBox="0 0 18 18" fill="none" xmlns="http://www.w3.org/2000/svg">
<path fill-rule="evenodd" clip-rule="evenodd" d="M1.5 9C1.5 4.93425 4.93425 1.5 9 1.5C13.0658 1.5 16.5 4.93425 16.5 9C16.5 11.3925 15.306 13.5585 13.5 14.943V15H13.4235C12.1725 15.9338 10.6403 16.5 9 16.5C7.35975 16.5 5.8275 15.9338 4.5765 15H4.5V14.943C2.694 13.5585 1.5 11.3918 1.5 9ZM8.25 12.4298C7.176 12.4298 6.27825 13.1865 6.0555 14.1953C6.9315 14.703 7.938 15 9 15C10.062 15 11.0685 14.703 11.9445 14.1953C11.7218 13.1873 10.824 12.4298 9.75 12.4298H8.25ZM13.2075 13.2307C12.6397 11.8807 11.304 10.9297 9.75 10.9297H8.25C6.696 10.9297 5.3595 11.8815 4.7925 13.2307C3.69225 12.1365 3 10.632 3 9C3 5.74725 5.74725 3 9 3C12.2528 3 15 5.74725 15 9C15 10.632 14.3077 12.1365 13.2075 13.2307ZM9 4.5C7.29 4.5 6 5.79 6 7.5C6 9.21 7.29 10.5 9 10.5C10.71 10.5 12 9.21 12 7.5C12 5.79 10.71 4.5 9 4.5ZM9 9C8.1165 9 7.5 8.3835 7.5 7.5C7.5 6.6165 8.1165 6 9 6C9.8835 6 10.5 6.6165 10.5 7.5C10.5 8.3835 9.8835 9 9 9Z" fill="#B2C1CF"/>
</svg>
