<svg width="18" height="18" viewBox="0 0 18 18" fill="none" xmlns="http://www.w3.org/2000/svg">
<path fill-rule="evenodd" clip-rule="evenodd" d="M9 1.5C4.8645 1.5 1.5 4.8645 1.5 9C1.5 13.1355 4.8645 16.5 9 16.5C13.1355 16.5 16.5 13.1355 16.5 9C16.5 4.8645 13.1355 1.5 9 1.5ZM9.75 14.9482V12.75H8.25V14.9482C5.54175 14.6085 3.3915 12.4583 3.05175 9.75H5.25V8.25H3.05175C3.3915 5.54175 5.54175 3.3915 8.25 3.05175V5.25H9.75V3.05175C12.4583 3.3915 14.6085 5.541 14.9482 8.25H12.75V9.75H14.9482C14.6085 12.4583 12.4583 14.6085 9.75 14.9482Z" fill="#B2C1CF"/>
</svg>
