<?xml version="1.0" encoding="utf-8"?>
<!-- Generator: Adobe Illustrator 23.0.3, SVG Export Plug-In . SVG Version: 6.00 Build 0)  -->
<svg version="1.1" id="Слой_1" xmlns="http://www.w3.org/2000/svg" xmlns:xlink="http://www.w3.org/1999/xlink" x="0px" y="0px"
	 viewBox="0 0 12.4 12.4" style="enable-background:new 0 0 12.4 12.4;" xml:space="preserve">
<style type="text/css">
	.st0{opacity:0.5;}
	.st1{fill-rule:evenodd;clip-rule:evenodd;fill:#6D88AF;}
</style>
<g>
	<g class="st0">
		<path class="st1" d="M0.7,12.4c0.1,0,0.1,0,0.2,0l2.7-0.7c0.1,0,0.2-0.1,0.3-0.2L12,3.3c0.3-0.3,0.4-0.6,0.4-0.9S12.3,1.7,12,1.4
			l-1.1-1.1c-0.5-0.5-1.4-0.5-1.9,0L0.9,8.6C0.8,8.7,0.7,8.8,0.7,8.9L0,11.5C0,11.8,0,12,0.2,12.2C0.3,12.3,0.5,12.4,0.7,12.4z
			 M10,1.3l1.1,1.1L10,3.4L8.9,2.4L10,1.3z M8,3.3L1.9,9.4l-0.4,1.4L3,10.4l6.1-6.1L8,3.3z"/>
	</g>
</g>
</svg>
