<svg width="32" height="32" viewBox="0 0 32 32" fill="none" xmlns="http://www.w3.org/2000/svg">
<rect width="32" height="32" rx="4" fill="#D42D11"/>
<path fill-rule="evenodd" clip-rule="evenodd" d="M10.6667 20.6667H12C12 21.402 12.598 22 13.3333 22H18.6667C19.402 22 20 21.402 20 20.6667H21.3333C22.0687 20.6667 22.6667 20.0687 22.6667 19.3333V12.6667C22.6667 11.9313 22.0687 11.3333 21.3333 11.3333H20C20 10.598 19.402 10 18.6667 10H13.3333C12.598 10 12 10.598 12 11.3333H10.6667C9.93133 11.3333 9.33333 11.9313 9.33333 12.6667V19.3333C9.33333 20.0687 9.93133 20.6667 10.6667 20.6667ZM21.3333 12.6667V19.3333H20V12.6667H21.3333ZM13.3333 11.3333H18.6667L18.6673 20.6667H13.3333V19.3333V11.3333ZM10.6667 12.6667H12V19.3333H10.6667V12.6667Z" fill="white"/>
</svg>
