<svg width="13" height="12" viewBox="0 0 13 12" fill="none" xmlns="http://www.w3.org/2000/svg">
<path fill-rule="evenodd" clip-rule="evenodd" d="M10.9105 1.91667H5.31863L4.32288 0.920917C4.21379 0.81125 4.06563 0.75 3.91046 0.75H1.57713C0.933711 0.75 0.410461 1.27325 0.410461 1.91667V10.0833C0.410461 10.7267 0.933711 11.25 1.57713 11.25H10.9105C11.5539 11.25 12.0771 10.7267 12.0771 10.0833V3.08333C12.0771 2.43992 11.5539 1.91667 10.9105 1.91667ZM1.57713 10.0833V1.91667H3.66896L4.66471 2.91242C4.77379 3.02208 4.92196 3.08333 5.07713 3.08333H10.9105L10.9116 10.0833H1.57713ZM5.66046 4.25H6.82713V6H8.57713V7.16667H6.82713V8.91667H5.66046V7.16667H3.91046V6H5.66046V4.25Z" fill="#B2C1CF"/>
</svg>
