<svg width="12" height="13" viewBox="0 0 12 13" fill="none" xmlns="http://www.w3.org/2000/svg">
<path fill-rule="evenodd" clip-rule="evenodd" d="M6 0.333374C4.162 0.333374 2.66667 1.82871 2.66667 3.66671C2.66667 5.50471 4.162 7.00004 6 7.00004C7.838 7.00004 9.33333 5.50471 9.33333 3.66671C9.33333 1.82871 7.838 0.333374 6 0.333374ZM6 5.66671C4.89733 5.66671 4 4.76937 4 3.66671C4 2.56404 4.89733 1.66671 6 1.66671C7.10267 1.66671 8 2.56404 8 3.66671C8 4.76937 7.10267 5.66671 6 5.66671ZM12 12.3334V13H10.6667V12.3334C10.6667 10.4954 9.17133 9.00004 7.33333 9.00004H4.66667C2.82867 9.00004 1.33333 10.4954 1.33333 12.3334V13H0V12.3334C0 9.76071 2.09333 7.66671 4.66667 7.66671H7.33333C9.906 7.66671 12 9.76071 12 12.3334Z" fill="#B2C1CF"/>
</svg>
