<svg width="13" height="12" viewBox="0 0 13 12" fill="none" xmlns="http://www.w3.org/2000/svg">
<path fill-rule="evenodd" clip-rule="evenodd" d="M2.66668 3.33329C2.66668 1.86263 3.86268 0.666626 5.33334 0.666626C6.80401 0.666626 8.00001 1.86263 8.00001 3.33329C8.00001 4.80396 6.80401 5.99996 5.33334 5.99996C3.86268 5.99996 2.66668 4.80396 2.66668 3.33329ZM9.29868 6.55529L8.61868 6.10463L9.19601 5.52863C9.73734 4.98596 10.032 4.30529 10.024 3.61063C10.016 2.93996 9.73334 2.31929 9.20668 1.81529L10.1267 0.851293C10.908 1.59729 11.3447 2.57196 11.3567 3.59529C11.366 4.40796 11.112 5.19996 10.6313 5.88529C12.3647 7.31396 13 9.24463 13 10.6666H11.6667C11.6667 9.49463 11.046 7.71463 9.29868 6.55529ZM5.33334 4.66663C4.59801 4.66663 4.00001 4.06863 4.00001 3.33329C4.00001 2.59796 4.59801 1.99996 5.33334 1.99996C6.06868 1.99996 6.66668 2.59796 6.66668 3.33329C6.66668 4.06863 6.06868 4.66663 5.33334 4.66663ZM4.33334 7.99996C2.86268 7.99996 1.66668 9.19596 1.66668 10.6666V11.3333H0.333344V10.6666C0.333344 8.46063 2.12734 6.66663 4.33334 6.66663H6.33334C8.53934 6.66663 10.3333 8.46063 10.3333 10.6666V11.3333H9.00001V10.6666C9.00001 9.19596 7.80401 7.99996 6.33334 7.99996H4.33334Z" fill="#B2C1CF"/>
</svg>
