<svg width="19" height="18" viewBox="0 0 19 18" fill="none" xmlns="http://www.w3.org/2000/svg">
<path fill-rule="evenodd" clip-rule="evenodd" d="M16.0318 3.75C16.0318 2.92275 15.359 2.25 14.5318 2.25H4.0318C3.20455 2.25 2.5318 2.92275 2.5318 3.75V14.25C2.5318 15.0773 3.20455 15.75 4.0318 15.75H14.5318C15.359 15.75 16.0318 15.0773 16.0318 14.25V3.75ZM4.0318 14.25V3.75H14.5318L14.5333 14.25H4.0318ZM5.5318 5.25H7.0303V6.75H5.5318V5.25ZM8.5318 5.25H13.0318V6.75H8.5318V5.25ZM7.0303 8.25H5.5318V9.75H7.0303V8.25ZM8.5318 8.25H13.0318V9.75H8.5318V8.25ZM7.0303 11.25H5.5318V12.75H7.0303V11.25ZM8.5318 11.25H13.0318V12.75H8.5318V11.25Z" fill="#B2C1CF"/>
</svg>
