<svg width="19" height="20" viewBox="0 0 19 20" fill="none" xmlns="http://www.w3.org/2000/svg">
<path fill-rule="evenodd" clip-rule="evenodd" d="M17.0305 9.29252C18.9785 7.34352 18.9785 4.17052 17.0305 2.22152C15.0805 0.271516 11.9075 0.273516 9.95954 2.22152L7.13154 5.05052L8.54554 6.46452L11.3735 3.63552C12.5435 2.46852 14.4465 2.46652 15.6165 3.63552C16.7855 4.80552 16.7855 6.70852 15.6165 7.87852L12.7875 10.7065L14.2015 12.1205L17.0305 9.29252ZM1.47454 17.7775C2.44954 18.7525 3.72954 19.2395 5.00954 19.2395C6.29054 19.2385 7.57154 18.7525 8.54554 17.7775L11.3735 14.9485L9.95954 13.5345L7.13154 16.3635C5.96254 17.5305 4.05954 17.5325 2.88854 16.3635C1.71954 15.1935 1.71954 13.2905 2.88854 12.1205L5.71754 9.29252L4.30354 7.87852L1.47454 10.7065C-0.474463 12.6555 -0.474463 15.8285 1.47454 17.7775ZM4.30202 13.5357L5.71621 14.9499L14.2023 6.46407L12.7882 5.04983L4.30202 13.5357Z" fill="#D42D11"/>
</svg>
