<svg width="12" height="14" viewBox="0 0 12 14" fill="none" xmlns="http://www.w3.org/2000/svg">
<path fill-rule="evenodd" clip-rule="evenodd" d="M1.33333 13.6666H10.6667C11.402 13.6666 12 13.0686 12 12.3333V4.33331V2.99998C12 2.26465 11.402 1.66665 10.6667 1.66665H9.33333V0.333313H8V1.66665H4V0.333313H2.66667V1.66665H1.33333C0.598 1.66665 0 2.26465 0 2.99998V4.33331V12.3333C0 13.0686 0.598 13.6666 1.33333 13.6666ZM10.6667 4.33331L10.6673 12.3333H1.33333V4.33331H10.6667ZM2.66667 6.33331H4V7.66665H2.66667V6.33331ZM2.66667 8.99998H4V10.3333H2.66667V8.99998ZM6.66667 6.33331H5.33333V7.66665H6.66667V6.33331ZM5.33333 8.99998H6.66667V10.3333H5.33333V8.99998ZM9.33333 6.33331H8V7.66665H9.33333V6.33331ZM8 8.99998H9.33333V10.3333H8V8.99998Z" fill="#B2C1CF"/>
</svg>
