<svg width="15" height="15" viewBox="0 0 15 15" fill="none" xmlns="http://www.w3.org/2000/svg">
<g id="icon">
<path id="&#237;&#175;&#128;" fill-rule="evenodd" clip-rule="evenodd" d="M11.1367 14.3437C11.9505 14.3437 12.3607 13.9726 12.3607 13.1263V12.4687H13.0052C14.2227 12.4687 14.8737 11.8437 14.8737 10.6263V4.89711C14.8737 3.67967 14.2227 3.05467 13.0052 3.05467H12.4128V2.72264C12.4128 1.50519 11.8073 0.958313 10.6419 0.958313H5.13411C4.02734 0.958313 3.36328 1.50519 3.36328 2.72264V3.05467H2.77083C1.61198 3.05467 0.902344 3.67967 0.902344 4.89711V10.6263C0.902344 11.8437 1.55339 12.4687 2.77083 12.4687H3.41536V13.1263C3.41536 13.9726 3.82552 14.3437 4.63932 14.3437H11.1367ZM11.3971 3.05467H4.37891V2.65102C4.37891 2.14972 4.63281 1.90232 5.1276 1.90232H10.6484C11.1432 1.90232 11.3971 2.14972 11.3971 2.65102V3.05467ZM3.41536 11.4791H2.76432C2.23047 11.4791 1.95703 11.1992 1.95703 10.6719V4.85154C1.95703 4.31769 2.23047 4.03774 2.76432 4.03774H13.0117C13.5456 4.03774 13.819 4.31769 13.819 4.85154V10.6719C13.819 11.1992 13.5456 11.4791 13.0117 11.4791H12.3607V7.85935C12.3607 7.013 11.9505 6.64191 11.1367 6.64191H4.63932C3.86458 6.64191 3.41536 7.013 3.41536 7.85935V11.4791ZM10.8503 13.3737H4.92578C4.61328 13.3737 4.45052 13.2174 4.45052 12.8919V8.08722C4.45052 7.76821 4.61328 7.61847 4.92578 7.61847H10.8503C11.1693 7.61847 11.3255 7.76821 11.3255 8.08722V12.8919C11.3255 13.2174 11.1693 13.3737 10.8503 13.3737ZM9.9974 9.81899C10.2188 9.81899 10.3815 9.64972 10.3815 9.42836C10.3815 9.22003 10.2188 9.05727 9.9974 9.05727H5.79167C5.5638 9.05727 5.40104 9.22003 5.40104 9.42836C5.40104 9.64972 5.5638 9.81899 5.79167 9.81899H9.9974ZM9.9974 11.9544C10.2188 11.9544 10.3815 11.7916 10.3815 11.5833C10.3815 11.362 10.2188 11.1927 9.9974 11.1927H5.79167C5.5638 11.1927 5.40104 11.362 5.40104 11.5833C5.40104 11.7916 5.5638 11.9544 5.79167 11.9544H9.9974Z" fill="#7E98AE"/>
</g>
</svg>
