<svg width="16" height="16" viewBox="0 0 16 16" fill="none" xmlns="http://www.w3.org/2000/svg">
<path fill-rule="evenodd" clip-rule="evenodd" d="M6.66665 12C7.89731 12 9.02865 11.5766 9.93131 10.8746L12.862 13.8053L13.8046 12.8626L10.874 9.93198C11.5766 9.02865 12 7.89731 12 6.66665C12 3.72598 9.60731 1.33331 6.66665 1.33331C3.72598 1.33331 1.33331 3.72598 1.33331 6.66665C1.33331 9.60731 3.72598 12 6.66665 12ZM6.66665 2.66665C8.87265 2.66665 10.6666 4.46065 10.6666 6.66665C10.6666 8.87265 8.87265 10.6666 6.66665 10.6666C4.46065 10.6666 2.66665 8.87265 2.66665 6.66665C2.66665 4.46065 4.46065 2.66665 6.66665 2.66665ZM7.99998 6.66665C7.99998 6.31198 7.86065 5.97731 7.60798 5.72398C7.10398 5.22131 6.23065 5.21998 5.72398 5.72531L4.78265 4.78131C5.79131 3.77331 7.54131 3.77331 8.55065 4.78131C9.05598 5.28731 9.33331 5.95665 9.33331 6.66665H7.99998Z" fill="#B2C1CF"/>
</svg>
