<svg width="14" height="14" viewBox="0 0 14 14" fill="none" xmlns="http://www.w3.org/2000/svg">
<g id="icon">
<path id="Combined Shape" fill-rule="evenodd" clip-rule="evenodd" d="M0.896614 9.75731L1.56328 10.9106C1.91728 11.522 2.76928 11.7513 3.38328 11.3973L3.73595 11.1933C4.12395 11.498 4.54995 11.748 4.99995 11.9346V12.3333C4.99995 13.0686 5.59795 13.6666 6.33328 13.6666H7.66661C8.40195 13.6666 8.99995 13.0686 8.99995 12.3333V11.9346C9.44995 11.748 9.87595 11.498 10.2639 11.194L10.6166 11.398C11.2319 11.7513 12.0819 11.5233 12.4373 10.9106L13.1033 9.75798C13.4713 9.12131 13.2526 8.30398 12.6159 7.93665L12.2793 7.74198C12.3153 7.49465 12.3333 7.24731 12.3333 6.99998C12.3333 6.75265 12.3153 6.50465 12.2793 6.25931L12.6159 6.06465C13.2526 5.69665 13.4713 4.87998 13.1033 4.24331L12.4373 3.09065C12.0833 2.47731 11.2319 2.24731 10.6166 2.60265L10.2639 2.80665C9.87595 2.50198 9.44995 2.25198 8.99995 2.06531V1.66665C8.99995 0.931313 8.40195 0.333313 7.66661 0.333313H6.33328C5.59795 0.333313 4.99995 0.931313 4.99995 1.66665V2.06531C4.54995 2.25198 4.12395 2.50198 3.73595 2.80598L3.38328 2.60198C2.76728 2.24798 1.91661 2.47731 1.56261 3.08998L0.896614 4.24265C0.528614 4.87931 0.747281 5.69665 1.38395 6.06398L1.72061 6.25865C1.68461 6.50465 1.66661 6.75265 1.66661 6.99998C1.66661 7.24731 1.68461 7.49465 1.72061 7.74065L1.38395 7.93531C0.747281 8.30331 0.528614 9.12065 0.896614 9.75731ZM3.11395 7.91865C3.03861 7.61665 2.99995 7.30731 2.99995 6.99998C2.99995 6.69198 3.03861 6.38265 3.11328 6.08131C3.18528 5.79265 3.05795 5.49131 2.79995 5.34265L2.05128 4.90931L2.71661 3.75665L3.47995 4.19798C3.73595 4.34531 4.05795 4.30798 4.27195 4.10331C4.72728 3.67198 5.27661 3.34931 5.86128 3.17065C6.14195 3.08531 6.33328 2.82598 6.33328 2.53331V1.66665H7.66661V2.53331C7.66661 2.82598 7.85795 3.08531 8.13861 3.17065C8.72328 3.34998 9.27261 3.67198 9.72795 4.10331C9.94195 4.30798 10.2653 4.34465 10.5199 4.19798L11.2826 3.75731L11.9493 4.90998L11.1999 5.34265C10.9419 5.49198 10.8146 5.79331 10.8866 6.08131C10.9613 6.38265 10.9999 6.69198 10.9999 6.99998C10.9999 7.30731 10.9613 7.61665 10.8859 7.91865C10.8146 8.20731 10.9419 8.50865 11.1999 8.65731L11.9486 9.08998L11.2833 10.2426L10.5199 9.80198C10.2646 9.65465 9.94195 9.69131 9.72795 9.89665C9.27261 10.328 8.72328 10.6506 8.13861 10.8293C7.85795 10.9146 7.66661 11.174 7.66661 11.4666L7.66795 12.3333H6.33328V11.4666C6.33328 11.174 6.14195 10.9146 5.86128 10.8293C5.27661 10.65 4.72728 10.328 4.27195 9.89665C4.14528 9.77531 3.97995 9.71331 3.81328 9.71331C3.69861 9.71331 3.58395 9.74265 3.47995 9.80265L2.71728 10.244L2.05061 9.09131L2.79995 8.65731C3.05795 8.50865 3.18528 8.20731 3.11395 7.91865ZM6.99995 9.66665C8.47061 9.66665 9.66661 8.47065 9.66661 6.99998C9.66661 5.52931 8.47061 4.33331 6.99995 4.33331C5.52928 4.33331 4.33328 5.52931 4.33328 6.99998C4.33328 8.47065 5.52928 9.66665 6.99995 9.66665ZM6.99995 5.66665C7.72261 5.66665 8.33328 6.27731 8.33328 6.99998C8.33328 7.72265 7.72261 8.33331 6.99995 8.33331C6.27728 8.33331 5.66661 7.72265 5.66661 6.99998C5.66661 6.27731 6.27728 5.66665 6.99995 5.66665Z" fill="#7E98AE"/>
</g>
</svg>
