<svg width="14" height="14" viewBox="0 0 14 14" fill="none" xmlns="http://www.w3.org/2000/svg">
<path fill-rule="evenodd" clip-rule="evenodd" d="M12.333 2.99998H12.3197C11.1023 1.38398 9.17434 0.333313 6.99967 0.333313C3.32367 0.333313 0.333008 3.32398 0.333008 6.99998C0.333008 10.676 3.32367 13.6666 6.99967 13.6666C9.17434 13.6666 11.1023 12.616 12.3197 11H12.333V10.9833C13.1663 9.86998 13.6663 8.49465 13.6663 6.99998C13.6663 5.50531 13.1663 4.12998 12.333 3.01665V2.99998ZM1.66634 6.99998C1.66634 6.77331 1.68501 6.55198 1.71234 6.33331H2.33301L2.99967 7.66665V8.99998L4.33301 10.3333L4.99967 11V11.9406C3.04767 11.148 1.66634 9.23331 1.66634 6.99998ZM6.99967 12.3333C6.56701 12.3333 6.14767 12.276 5.74367 12.178L6.33301 11L6.99967 9.66665V8.33331H5.66634L4.99967 7.66665H4.33301L3.66634 6.33331L4.33301 4.99998L4.99967 4.33331L5.66634 3.66665L6.33301 2.33331V1.71265C6.55167 1.68531 6.77301 1.66665 6.99967 1.66665C8.26101 1.66665 9.41901 2.10865 10.333 2.84331V2.99998V3.66665L9.66634 4.99998L10.333 5.66665V6.33331L8.99967 6.99998L8.33301 7.67731L8.99967 8.33331L9.66634 8.99998L10.333 10.3333L10.769 10.7693C9.80301 11.7353 8.46967 12.3333 6.99967 12.3333Z" fill="#D8D8D8"/>
</svg>
